<?xml version="1.0" encoding="UTF-8" standalone="no"?>
<!-- Created with Inkscape (http://www.inkscape.org/) -->

<svg
   width="30.977016"
   height="23.458015"
   viewBox="0 0 30.977016 23.458015"
   version="1.1"
   id="SVGRoot"
   xmlns:xlink="http://www.w3.org/1999/xlink"
   xmlns="http://www.w3.org/2000/svg"
   xmlns:svg="http://www.w3.org/2000/svg">
  <defs
     id="defs132">
    <linearGradient
       id="linearGradient3093">
      <stop
         style="stop-color:#ffb4a2;stop-opacity:1;"
         offset="0"
         id="stop3089" />
      <stop
         style="stop-color:#b5838d;stop-opacity:1;"
         offset="0.75228864"
         id="stop3091" />
      <stop
         style="stop-color:#6d6875;stop-opacity:1;"
         offset="0.99918199"
         id="stop5293" />
    </linearGradient>
    <linearGradient
       xlink:href="#linearGradient3093"
       id="linearGradient3095"
       x1="0.49012756"
       y1="15.98245"
       x2="31.490128"
       y2="15.98245"
       gradientUnits="userSpaceOnUse"
       spreadMethod="pad"
       gradientTransform="rotate(88.464622,15.983504,15.478947)" />
  </defs>
  <path
     id="path1047"
     style="fill:url(#linearGradient3095);fill-opacity:1;fill-rule:nonzero;stroke:none;stroke-width:11.7997;stroke-linecap:round;stroke-dasharray:none;stroke-opacity:1"
     d="M 15.064453,0.0048906 A 15.5,15.5 0 0 0 2.2558594,7.4560623 H 28.703125 A 15.5,15.5 0 0 0 15.064453,0.0048906 Z M 1.8007813,8.2568433 A 15.5,15.5 0 0 0 0.55078128,11.471687 H 30.433593 A 15.5,15.5 0 0 0 29.166015,8.2568433 Z M 0.21093747,13.07325 A 15.5,15.5 0 0 0 -1.7688751e-8,15.477547 H 30.976562 a 15.5,15.5 0 0 0 -0.002,-0.394532 15.5,15.5 0 0 0 -0.203125,-2.009766 z m -0.0390625,4.804687 a 15.5,15.5 0 0 0 0.34960941,1.607422 H 30.439453 a 15.5,15.5 0 0 0 0.355468,-1.607422 z m 1.60742193,4.80664 a 15.5,15.5 0 0 0 0.4667969,0.773439 l 26.4687492,-1e-6 a 15.5,15.5 0 0 0 0.464844,-0.773437 z" />
</svg>
