<?xml version="1.0" encoding="UTF-8" standalone="no"?>
<!-- Created with Inkscape (http://www.inkscape.org/) -->

<svg
   width="32.0px"
   height="32.0px"
   viewBox="0 0 32.0 32.0"
   version="1.1"
   id="SVGRoot"
   sodipodi:docname="greek_pillar_outline.svg"
   inkscape:version="1.2.2 (b0a8486541, 2022-12-01)"
   xmlns:inkscape="http://www.inkscape.org/namespaces/inkscape"
   xmlns:sodipodi="http://sodipodi.sourceforge.net/DTD/sodipodi-0.dtd"
   xmlns="http://www.w3.org/2000/svg"
   xmlns:svg="http://www.w3.org/2000/svg">
  <sodipodi:namedview
     id="namedview3529"
     pagecolor="#505050"
     bordercolor="#eeeeee"
     borderopacity="1"
     inkscape:showpageshadow="0"
     inkscape:pageopacity="0"
     inkscape:pagecheckerboard="0"
     inkscape:deskcolor="#505050"
     inkscape:document-units="px"
     showgrid="true"
     inkscape:zoom="10.469074"
     inkscape:cx="8.4534697"
     inkscape:cy="21.014275"
     inkscape:window-width="1920"
     inkscape:window-height="1163"
     inkscape:window-x="0"
     inkscape:window-y="0"
     inkscape:window-maximized="1"
     inkscape:current-layer="layer2">
    <inkscape:grid
       type="xygrid"
       id="grid3652" />
  </sodipodi:namedview>
  <defs
     id="defs3524" />
  <g
     inkscape:label="Body"
     inkscape:groupmode="layer"
     id="layer1">
    <path
       style="color:#000000;fill:#000000;stroke-width:1.00128;stroke-linecap:round;stroke-linejoin:round;-inkscape-stroke:none;paint-order:stroke markers fill"
       d="M 4.2042482,16.000001 A 1.2030727,1.2 0 0 0 3.0000006,17.19922 1.2030727,1.2 0 0 0 4.2042482,18.400392 H 27.795751 a 1.2030727,1.2 0 0 0 1.204248,-1.201172 1.2030727,1.2 0 0 0 -1.204248,-1.199219 z"
       id="path4648-7" />
    <path
       style="color:#000000;fill:#000000;stroke-linecap:round;stroke-linejoin:round;-inkscape-stroke:none;paint-order:stroke markers fill"
       d="M 6.1992187,16 A 1.19977,1.19977 0 0 0 5,17.199219 V 30.800781 A 1.19977,1.19977 0 0 0 6.1992187,32 1.19977,1.19977 0 0 0 7.4003906,30.800781 V 17.199219 A 1.19977,1.19977 0 0 0 6.1992187,16 Z"
       id="path4648-7-5" />
    <path
       style="color:#000000;fill:#000000;stroke-linecap:round;stroke-linejoin:round;-inkscape-stroke:none;paint-order:stroke markers fill"
       d="M 11.199219,20 A 1.1999151,1.1999151 0 0 0 10,21.199219 v 7.601562 A 1.1999151,1.1999151 0 0 0 11.199219,30 1.1999151,1.1999151 0 0 0 12.400391,28.800781 V 21.199219 A 1.1999151,1.1999151 0 0 0 11.199219,20 Z"
       id="path4648-7-5-3" />
    <path
       style="color:#000000;fill:#000000;stroke-width:0.948683;stroke-linecap:round;stroke-linejoin:round;-inkscape-stroke:none;paint-order:stroke markers fill"
       d="M 15.899219,20.000001 A 1.1999151,1.0799234 0 0 0 14.7,21.079298 v 6.841405 A 1.1999151,1.0799234 0 0 0 15.899219,29 1.1999151,1.0799234 0 0 0 17.100391,27.920703 v -6.841405 a 1.1999151,1.0799234 0 0 0 -1.201172,-1.079297 z"
       id="path4648-7-5-3-6" />
    <path
       style="color:#000000;fill:#000000;stroke-width:0.894354;stroke-linecap:round;stroke-linejoin:round;-inkscape-stroke:none;paint-order:stroke markers fill"
       d="M 20.899024,20.000001 A 1.1997196,0.95993189 0 0 0 19.7,20.959376 v 6.081249 A 1.1997196,0.95993189 0 0 0 20.899024,28 1.1997196,0.95993189 0 0 0 22.1,27.040625 v -6.081249 a 1.1997196,0.95993189 0 0 0 -1.200976,-0.959375 z"
       id="path4648-7-5-3-6-2" />
    <path
       style="color:#000000;fill:#000000;stroke-width:1.01452;stroke-linecap:round;stroke-linejoin:round;-inkscape-stroke:none;paint-order:stroke markers fill"
       d="M 25.900976,16.000001 A 1.199805,1.2353133 0 0 0 24.7,17.23451 v 8.53098 A 1.199805,1.2353133 0 0 0 25.900976,27 1.199805,1.2353133 0 0 0 27.1,25.76549 v -8.53098 a 1.199805,1.2353133 0 0 0 -1.199024,-1.234509 z"
       id="path4648-7-5-3-5" />
  </g>
  <g
     inkscape:groupmode="layer"
     id="layer2"
     inkscape:label="Head">
    <path
       style="color:#000000;fill:#000000;fill-rule:evenodd;stroke-width:1.724;stroke-linecap:round;paint-order:stroke markers fill;stroke-dasharray:none"
       d="m 31.997604,7.3143994 c 0.04756,1.8120735 -0.611747,3.6289826 -2.082248,4.9910506 -2.32608,2.154558 -6.230282,2.382416 -8.537826,-0.05916 -1.78204,-1.885551 -1.95084,-5.0218395 0.178421,-6.8407562 1.59809,-1.3651656 4.231997,-1.4744488 5.719593,0.2760755 1.078717,1.2693778 1.140446,3.3424229 -0.385226,4.4684787 A 1.2163269,1.1830089 0 0 1 25.187213,9.9213405 1.2163269,1.1830089 0 0 1 25.420377,8.2648878 c 0.281862,-0.2080349 0.263506,-0.7427556 -0.02027,-1.0766943 -0.517008,-0.6083887 -1.587618,-0.5635482 -2.240393,-0.00592 -1.0045,0.8580918 -0.916368,2.4845997 0.0081,3.4627755 1.307633,1.383585 3.667935,1.246169 5.070792,-0.05324 C 30.120416,8.8487638 29.913987,5.8034091 28.106822,4.0093821 26.930694,2.8418057 25.190706,2.2494608 23.490191,2.3864527 A 1.2163269,1.1830089 0 0 1 22.178395,1.305814 1.2163269,1.1830089 0 0 1 23.289468,0.02797909 c 2.401174,-0.19343632 4.837317,0.61982858 6.554925,2.32495031 1.351999,1.3421687 2.10565,3.1493966 2.153211,4.96147 z"
       id="path4076" />
    <path
       style="color:#000000;fill:#000000;fill-rule:evenodd;stroke-linecap:round;-inkscape-stroke:none;paint-order:stroke markers fill"
       d="M 8.0429688,-0.44140625 C 6.2488438,-0.48721784 4.4501046,0.14648285 3.1015625,1.5625 0.96848188,3.8023104 0.74301279,7.56328 3.1601563,9.7851563 5.0267442,11.500953 8.1311051,11.665241 9.9316406,9.6152344 11.282921,8.0767294 11.390811,5.5394608 9.6582031,4.1074219 8.4019291,3.0690833 6.3506676,3.0100741 5.2363281,4.4785156 A 1.16924,1.16924 0 0 0 5.4609375,6.1152344 1.16924,1.16924 0 0 0 7.0996094,5.890625 C 7.3066129,5.6178423 7.8381995,5.6359803 8.1699219,5.9101562 8.7736872,6.4091818 8.7289267,7.4405267 8.1757813,8.0703125 7.3248876,9.0391007 5.7119615,8.9558846 4.7421875,8.0644531 3.370721,6.8037796 3.5070344,4.5281088 4.7949219,3.1757813 6.5223345,1.3619366 9.5405468,1.5609568 11.318359,3.3027344 c 1.15698,1.1335286 1.743164,2.8103786 1.607422,4.4492187 a 1.16924,1.16924 0 0 0 1.06836,1.2617188 1.16924,1.16924 0 0 0 1.261718,-1.0683594 c 0.19153,-2.3123753 -0.612512,-4.6584514 -2.300781,-6.3125 -1.32888,-1.30194498 -3.1179843,-2.02840716 -4.9121092,-2.07421875 z"
       id="path4076-3"
       transform="matrix(0,-1.0119135,1.0409101,0,0.46104189,15.466596)" />
    <path
       style="color:#000000;fill:#000000;stroke-width:1.00022;stroke-linecap:round;stroke-linejoin:round;-inkscape-stroke:none;paint-order:stroke markers fill"
       d="M 8.201694,0 A 1.200521,1.2 0 0 0 7.0000006,1.1992187 1.200521,1.2 0 0 0 8.201694,2.4003906 H 23.798306 A 1.200521,1.2 0 0 0 24.999999,1.1992187 1.200521,1.2 0 0 0 23.798306,0 Z"
       id="path4648" />
    <path
       style="color:#000000;fill:#000000;stroke-width:0.997729;stroke-linecap:round;stroke-linejoin:round;-inkscape-stroke:none;paint-order:stroke markers fill"
       d="m 11.195723,8.0000006 a 1.1945559,1.2 0 0 0 -1.195722,1.2011719 1.1945559,1.2 0 0 0 1.195722,1.1992185 h 9.608554 A 1.1945559,1.2 0 0 0 21.999999,9.2011725 1.1945559,1.2 0 0 0 20.804277,8.0000006 Z"
       id="path4648-6" />
  </g>
</svg>
