<?xml version="1.0" encoding="UTF-8" standalone="no"?>
<!-- Created with Inkscape (http://www.inkscape.org/) -->

<svg
   width="32"
   height="32"
   viewBox="0 0 32 32"
   version="1.1"
   id="SVGRoot"
   sodipodi:docname="greek_pillar_outline.svg"
   inkscape:version="1.2.2 (b0a8486541, 2022-12-01)"
   inkscape:export-filename="greek_pillar_solid_icon.svg"
   inkscape:export-xdpi="96"
   inkscape:export-ydpi="96"
   xmlns:inkscape="http://www.inkscape.org/namespaces/inkscape"
   xmlns:sodipodi="http://sodipodi.sourceforge.net/DTD/sodipodi-0.dtd"
   xmlns="http://www.w3.org/2000/svg"
   xmlns:svg="http://www.w3.org/2000/svg">
  <sodipodi:namedview
     id="namedview137"
     pagecolor="#505050"
     bordercolor="#eeeeee"
     borderopacity="1"
     inkscape:showpageshadow="0"
     inkscape:pageopacity="0"
     inkscape:pagecheckerboard="0"
     inkscape:deskcolor="#505050"
     inkscape:document-units="px"
     showgrid="true"
     inkscape:zoom="14.54937"
     inkscape:cx="9.725507"
     inkscape:cy="14.777272"
     inkscape:window-width="1920"
     inkscape:window-height="1163"
     inkscape:window-x="0"
     inkscape:window-y="0"
     inkscape:window-maximized="1"
     inkscape:current-layer="g3748">
    <inkscape:grid
       type="xygrid"
       id="grid260" />
  </sodipodi:namedview>
  <defs
     id="defs132">
    <inkscape:path-effect
       effect="fillet_chamfer"
       id="path-effect3659"
       is_visible="true"
       lpeversion="1"
       nodesatellites_param="F,0,0,1,0,2.4945718,0,1 @ F,0,0,1,0,2.5738184,0,1 @ F,0,0,1,0,0,0,1 @ F,0,0,1,0,0,0,1"
       unit="px"
       method="auto"
       mode="F"
       radius="0"
       chamfer_steps="1"
       flexible="false"
       use_knot_distance="true"
       apply_no_radius="true"
       apply_with_radius="true"
       only_selected="false"
       hide_knots="false" />
    <linearGradient
       id="linearGradient3762"
       inkscape:swatch="solid">
      <stop
         style="stop-color:#000000;stop-opacity:1;"
         offset="0"
         id="stop3760" />
    </linearGradient>
  </defs>
  <g
     inkscape:groupmode="layer"
     id="layer2"
     inkscape:label="base"
     style="display:none">
    <rect
       style="display:inline;fill:none;fill-opacity:1;stroke:#000000;stroke-width:2.60000;stroke-dasharray:none;stroke-opacity:1;paint-order:normal"
       id="rect11787-2-9"
       width="10.559214"
       height="1.3132558"
       x="14.994605"
       y="-8.196991"
       transform="rotate(90)" />
    <rect
       style="display:inline;fill:none;fill-opacity:1;stroke:#000000;stroke-width:2.60000;stroke-dasharray:none;stroke-opacity:1;paint-order:normal"
       id="rect11787-2-9-1"
       width="10.559214"
       height="1.3132558"
       x="15.005651"
       y="-25.082005"
       transform="rotate(90)" />
    <rect
       style="display:inline;fill:none;fill-opacity:1;stroke:#000000;stroke-width:2.60000;stroke-dasharray:none;stroke-opacity:1"
       id="rect19231-9-3"
       width="5.3951368"
       height="1.4788036"
       x="17.748617"
       y="-12.277267"
       ry="0.73940182"
       transform="rotate(90)" />
    <rect
       style="display:inline;fill:none;fill-opacity:1;stroke:#000000;stroke-width:2.60000;stroke-dasharray:none;stroke-opacity:1"
       id="rect19231-9-3-0"
       width="5.3951368"
       height="1.4788036"
       x="17.776697"
       y="-21.178947"
       ry="0.73940182"
       transform="rotate(90)" />
    <rect
       style="display:inline;fill:none;fill-opacity:1;stroke:#000000;stroke-width:2.60000;stroke-dasharray:none;stroke-opacity:1"
       id="rect19231-9-3-0-9"
       width="5.3951368"
       height="1.4788036"
       x="17.747173"
       y="-16.734526"
       ry="0.73940182"
       transform="rotate(90)" />
    <path
       style="display:inline;fill:none;fill-opacity:1;stroke:#000000;stroke-width:2.60000;stroke-dasharray:none;stroke-opacity:1"
       id="rect19231-2-7"
       width="25.11879"
       height="4.0743999"
       x="3.5817633"
       y="26.383915"
       transform="matrix(0.99998088,0.00618327,-0.00344084,0.99999408,0,0)"
       ry="0"
       inkscape:label="rect19231-2-7"
       inkscape:path-effect="#path-effect3659"
       d="M 6.0763351,26.383915 H 26.126735 a 2.5738184,2.5738184 45 0 1 2.573818,2.573818 v 1.500582 H 3.5817633 l 0,-1.579828 a 2.4945718,2.4945718 135 0 1 2.4945718,-2.494572 z"
       sodipodi:type="rect" />
  </g>
  <g
     inkscape:groupmode="layer"
     id="g3748"
     inkscape:label="body"
     style="display:inline">
    <path
       style="color:#000000;fill:#000000;stroke-linecap:round;-inkscape-stroke:none"
       d="m 4.1660156,15.890625 a 1.3,1.3 0 0 0 -1.3007812,1.298828 1.3,1.3 0 0 0 1.3007812,1.300781 H 4.90625 v 12.283203 a 1.3,1.3 0 0 0 1.3007812,1.300782 1.3,1.3 0 0 0 1.2988282,-1.300782 l 0.00195,-12.283203 H 24.458984 l -0.002,7.25586 a 1.3,1.3 0 0 0 1.300781,1.300781 1.3,1.3 0 0 0 1.300782,-1.300781 v -7.25586 h 0.728515 a 1.3,1.3 0 0 0 1.300782,-1.300781 1.3,1.3 0 0 0 -1.300782,-1.298828 z m 16.5898434,3.988281 a 1.3,1.3 0 0 0 -1.300781,1.300781 v 5.566407 a 1.3,1.3 0 0 0 1.298828,1.300781 1.3,1.3 0 0 0 1.300781,-1.300781 v -5.566407 a 1.3,1.3 0 0 0 -1.298828,-1.300781 z m -9.558593,0.0059 a 1.3,1.3 0 0 0 -1.3007816,1.300781 v 7.597656 a 1.3,1.3 0 0 0 1.3007816,1.298828 1.3,1.3 0 0 0 1.298828,-1.298828 v -7.597656 a 1.3,1.3 0 0 0 -1.298828,-1.300781 z m 4.876953,0.0098 a 1.3,1.3 0 0 0 -1.300781,1.298828 v 6.59961 a 1.3,1.3 0 0 0 1.298828,1.300781 1.3,1.3 0 0 0 1.300781,-1.300781 v -6.59961 a 1.3,1.3 0 0 0 -1.298828,-1.298828 z"
       id="path263" />
  </g>
  <g
     inkscape:label="header"
     inkscape:groupmode="layer"
     id="layer1"
     style="display:inline">
    <path
       style="color:#000000;fill:#000000;stroke-linecap:round;-inkscape-stroke:none"
       d="M 8.2617188,-0.06054687 C 8.2069392,-0.06059021 8.158082,-0.0321839 8.1035156,-0.03125 H 8.0058594 A 1.3,1.3 0 0 0 7.984375,-0.00976563 C 6.9828987,0.0209497 6.0066308,0.17035834 5.0722656,0.52929687 1.1773453,2.0255399 -1.2046642,6.4020516 0.54296875,10.318359 1.9465155,13.463596 5.7623373,15.253777 9.1757813,13.835938 10.808817,13.157625 11.956524,11.704475 12.378906,10.068359 h 7.285156 c 0.414438,1.649145 1.567535,3.116209 3.210938,3.798829 3.413443,1.417838 7.227312,-0.372341 8.630859,-3.517579 C 33.253492,6.4333016 30.871483,2.0567897 26.976562,0.56054687 26.06186,0.20916199 25.085588,0.07649839 24.109375,0.03515625 A 1.3,1.3 0 0 0 23.916016,-0.04492187 L 8.40625,-0.03125 A 1.3,1.3 0 0 0 8.2617188,-0.06054687 Z M 23.710937,2.5546875 a 1.3,1.3 0 0 0 0.0098,0.00977 c 0.797573,-6.308e-4 1.595305,0.1438142 2.324219,0.4238282 2.665281,1.0238738 4.174412,3.8635474 3.085937,6.3027343 -0.824344,1.8472914 -3.2395,3.0149374 -5.259765,2.1757814 -1.471501,-0.611216 -2.270736,-2.1724615 -1.642578,-3.4531251 0.421643,-0.8596303 1.638808,-1.4332117 2.5625,-1.0019532 0.279658,0.130568 0.516265,0.3849562 0.615234,0.6171875 0.09897,0.2322314 0.09961,0.3820258 -0.0098,0.5742188 A 1.3,1.3 0 0 0 25.882812,9.9765625 1.3,1.3 0 0 0 27.65625,9.4882813 C 28.184499,8.5600691 28.16534,7.4713465 27.798828,6.6113281 27.432317,5.7513097 26.756224,5.0603846 25.890625,4.65625 c -2.331789,-1.0886795 -4.957906,0.096272 -5.996094,2.2128906 -0.0966,0.196951 -0.07203,0.39975 -0.138672,0.5996094 l -7.455078,-0.00195 C 12.232382,7.2570945 12.257562,7.0444407 12.15625,6.8378906 11.118063,4.7212724 8.4899923,3.5363205 6.1582031,4.625 5.2926061,5.0291349 4.6184647,5.7181074 4.2519531,6.578125 3.8854415,7.4381426 3.8643298,8.5288184 4.3925781,9.4570313 A 1.3,1.3 0 0 0 6.1660156,9.9433594 1.3,1.3 0 0 0 6.6523437,8.171875 C 6.5429666,7.9796827 6.5436083,7.8298883 6.6425781,7.5976562 6.7415479,7.3654242 6.978156,7.1110364 7.2578125,6.9804687 8.1815041,6.5492102 9.3986694,7.1227914 9.8203125,7.9824219 10.448471,9.2630855 9.6492336,10.824332 8.1777344,11.435547 6.157467,12.274704 3.7423134,11.107056 2.9179688,9.2597656 1.8294937,6.8205787 3.3405784,3.9809053 6.0058594,2.9570313 6.6985262,2.6909417 7.366326,2.5851254 8.1015625,2.5683594 Z"
       id="path260" />
  </g>
</svg>
