<?xml version="1.0" encoding="UTF-8" standalone="no"?>
<!-- Created with Inkscape (http://www.inkscape.org/) -->

<svg
   width="31.964846"
   height="31.754023"
   viewBox="0 0 31.964846 31.754023"
   version="1.1"
   id="SVGRoot"
   sodipodi:docname="greek_temple_solid.svg"
   inkscape:version="1.2.2 (b0a8486541, 2022-12-01)"
   inkscape:export-filename="greek_pillar_solid_icon.svg"
   inkscape:export-xdpi="96"
   inkscape:export-ydpi="96"
   xmlns:inkscape="http://www.inkscape.org/namespaces/inkscape"
   xmlns:sodipodi="http://sodipodi.sourceforge.net/DTD/sodipodi-0.dtd"
   xmlns="http://www.w3.org/2000/svg"
   xmlns:svg="http://www.w3.org/2000/svg">
  <sodipodi:namedview
     id="namedview137"
     pagecolor="#505050"
     bordercolor="#eeeeee"
     borderopacity="1"
     inkscape:showpageshadow="0"
     inkscape:pageopacity="0"
     inkscape:pagecheckerboard="0"
     inkscape:deskcolor="#505050"
     inkscape:document-units="px"
     showgrid="true"
     inkscape:zoom="12.689443"
     inkscape:cx="16.982621"
     inkscape:cy="15.918744"
     inkscape:window-width="1920"
     inkscape:window-height="1163"
     inkscape:window-x="0"
     inkscape:window-y="0"
     inkscape:window-maximized="1"
     inkscape:current-layer="layer2">
    <inkscape:grid
       type="xygrid"
       id="grid260" />
  </sodipodi:namedview>
  <defs
     id="defs132">
    <linearGradient
       id="linearGradient3762"
       inkscape:swatch="solid">
      <stop
         style="stop-color:#000000;stop-opacity:1;"
         offset="0"
         id="stop3760" />
    </linearGradient>
  </defs>
  <g
     inkscape:groupmode="layer"
     id="layer2"
     inkscape:label="footer"
     transform="translate(-0.0294651,-0.12688176)">
    <g
       id="path1244">
      <path
         style="color:#000000;fill:#000000;stroke-linecap:round;stroke-linejoin:round;-inkscape-stroke:none;paint-order:stroke markers fill"
         d="m 6.7949219,24.980469 -3.5585938,0.02344 A 1.19037,1.19037 0 0 0 2.0527344,26.201172 1.19037,1.19037 0 0 0 3.25,27.384766 l 3.5585937,-0.02344 A 1.19037,1.19037 0 0 0 7.9921875,26.164062 1.19037,1.19037 0 0 0 6.7949219,24.980469 Z"
         id="path1617" />
      <path
         style="color:#000000;fill:#2b0000;stroke-width:2.38074;stroke-linecap:round;stroke-linejoin:round;-inkscape-stroke:none;paint-order:stroke markers fill"
         d="m 3.24293,26.193605 3.5590081,-0.02265"
         id="path1619" />
    </g>
    <g
       id="path1244-35">
      <path
         style="color:#000000;fill:#000000;stroke-linecap:round;stroke-linejoin:round;-inkscape-stroke:none;paint-order:stroke markers fill"
         d="m 28.78125,24.966797 -17.615234,0.0059 a 1.199375,1.199375 0 0 0 -1.1992191,1.199219 1.199375,1.199375 0 0 0 1.1992191,1.199219 l 17.615234,-0.0039 a 1.199375,1.199375 0 0 0 1.199219,-1.201171 1.199375,1.199375 0 0 0 -1.199219,-1.199219 z"
         id="path1623" />
      <path
         style="color:#000000;fill:#2b0000;stroke-width:2.39875;stroke-linecap:round;stroke-linejoin:round;-inkscape-stroke:none;paint-order:stroke markers fill"
         d="m 11.165745,26.171629 17.615953,-0.0047"
         id="path1625" />
    </g>
    <g
       id="path1244-7">
      <path
         style="color:#000000;fill:#000000;stroke-linecap:round;stroke-linejoin:round;-inkscape-stroke:none;paint-order:stroke markers fill"
         d="m 30.789062,29.478516 -29.5312495,0.002 a 1.2003,1.2003 0 0 0 -1.19921875,1.201172 1.2003,1.2003 0 0 0 1.19921875,1.199218 l 29.5312495,-0.002 a 1.2003,1.2003 0 0 0 1.201172,-1.201172 1.2003,1.2003 0 0 0 -1.201172,-1.199218 z"
         id="path1629" />
      <path
         style="color:#000000;fill:#2b0000;stroke-width:2.4006;stroke-linecap:round;stroke-linejoin:round;-inkscape-stroke:none;paint-order:stroke markers fill"
         d="m 1.258584,30.68081 29.530634,-0.0027"
         id="path1631" />
    </g>
  </g>
  <g
     inkscape:groupmode="layer"
     id="g3748"
     inkscape:label="body"
     transform="translate(-0.0294651,-0.12688176)">
    <g
       id="path1244-6">
      <path
         style="color:#000000;fill:#000000;stroke-linecap:round;stroke-linejoin:round;-inkscape-stroke:none;paint-order:stroke markers fill"
         d="m 28.707031,11.019531 -25.4785154,0.002 a 1.200085,1.200085 0 0 0 -1.2011718,1.201172 1.200085,1.200085 0 0 0 1.2011718,1.199219 l 25.4785154,-0.002 a 1.200085,1.200085 0 0 0 1.201172,-1.201172 1.200085,1.200085 0 0 0 -1.201172,-1.199219 z"
         id="path1587" />
      <path
         style="color:#000000;fill:#2b0000;stroke-width:2.40017;stroke-linecap:round;stroke-linejoin:round;-inkscape-stroke:none;paint-order:stroke markers fill"
         d="m 3.2280418,12.222453 25.4797712,-0.0032"
         id="path1589" />
    </g>
    <g
       id="path1244-2">
      <path
         style="color:#000000;fill:#000000;stroke-linecap:round;stroke-linejoin:round;-inkscape-stroke:none;paint-order:stroke markers fill"
         d="m 5.171875,11.029297 a 1.1556751,1.1556751 0 0 0 -1.15625,1.15625 l 0.00586,13.621094 a 1.1556751,1.1556751 0 0 0 1.15625,1.154296 1.1556751,1.1556751 0 0 0 1.1542968,-1.15625 l -0.00586,-13.61914 A 1.1556751,1.1556751 0 0 0 5.171875,11.029297 Z"
         id="path1593" />
      <path
         style="color:#000000;fill:#2b0000;stroke-width:2.31135;stroke-linecap:round;stroke-linejoin:round;-inkscape-stroke:none;paint-order:stroke markers fill"
         d="M 5.1770334,25.805762 5.1714732,12.185495"
         id="path1595" />
    </g>
    <g
       id="path1244-2-9">
      <path
         style="color:#000000;fill:#000000;stroke-linecap:round;stroke-linejoin:round;-inkscape-stroke:none;paint-order:stroke markers fill"
         d="m 12.464844,11.027344 a 1.154565,1.154565 0 0 0 -1.154297,1.15625 l 0.0078,9.71875 a 1.154565,1.154565 0 0 0 1.15625,1.152343 1.154565,1.154565 0 0 0 1.152344,-1.154296 l -0.0078,-9.71875 a 1.154565,1.154565 0 0 0 -1.154297,-1.154297 z"
         id="path1599" />
      <path
         style="color:#000000;fill:#2b0000;stroke-width:2.30913;stroke-linecap:round;stroke-linejoin:round;-inkscape-stroke:none;paint-order:stroke markers fill"
         d="m 12.472755,21.900971 -0.0077,-9.718436"
         id="path1601" />
    </g>
    <g
       id="path1244-2-9-1">
      <path
         style="color:#000000;fill:#000000;stroke-linecap:round;stroke-linejoin:round;-inkscape-stroke:none;paint-order:stroke markers fill"
         d="m 19.490234,11.046875 a 1.154555,1.154555 0 0 0 -1.152343,1.15625 l 0.0078,9.691406 A 1.154555,1.154555 0 0 0 19.5,23.048828 1.154555,1.154555 0 0 0 20.654297,21.894531 l -0.0078,-9.693359 a 1.154555,1.154555 0 0 0 -1.15625,-1.154297 z"
         id="path1605" />
      <path
         style="color:#000000;fill:#2b0000;stroke-width:2.30911;stroke-linecap:round;stroke-linejoin:round;-inkscape-stroke:none;paint-order:stroke markers fill"
         d="m 19.499629,21.894565 -0.0077,-9.692838"
         id="path1607" />
    </g>
    <g
       id="path1244-2-9-1-2">
      <path
         style="color:#000000;fill:#000000;stroke-linecap:round;stroke-linejoin:round;-inkscape-stroke:none;paint-order:stroke markers fill"
         d="m 26.769531,11.011719 a 1.15456,1.15456 0 0 0 -1.152344,1.15625 l 0.0059,9.697265 a 1.15456,1.15456 0 0 0 1.15625,1.154297 1.15456,1.15456 0 0 0 1.154297,-1.15625 l -0.0078,-9.697265 a 1.15456,1.15456 0 0 0 -1.15625,-1.154297 z"
         id="path1611" />
      <path
         style="color:#000000;fill:#2b0000;stroke-width:2.30912;stroke-linecap:round;stroke-linejoin:round;-inkscape-stroke:none;paint-order:stroke markers fill"
         d="m 26.778581,21.865094 -0.0077,-9.698572"
         id="path1613" />
    </g>
  </g>
  <g
     inkscape:label="header"
     inkscape:groupmode="layer"
     id="layer1"
     transform="translate(-0.01953125,-0.09144208)">
    <g
       id="path1244-3">
      <path
         style="color:#000000;fill:#000000;stroke-linecap:round;stroke-linejoin:round;-inkscape-stroke:none;paint-order:stroke markers fill"
         d="M 30.785156,6.6953125 1.21875,6.6992187 A 1.2,1.2 0 0 0 0.01953125,7.8984375 1.2,1.2 0 0 0 1.21875,9.0976563 l 29.566406,-0.00195 A 1.2,1.2 0 0 0 31.984375,7.8945312 1.2,1.2 0 0 0 30.785156,6.6953125 Z"
         id="path1569" />
      <path
         style="color:#000000;fill:#2b0000;stroke-width:2.4;stroke-linecap:round;stroke-linejoin:round;-inkscape-stroke:none;paint-order:stroke markers fill"
         d="M 1.2192822,7.8982648 30.784359,7.8954844"
         id="path1571" />
    </g>
    <g
       id="path1244-3-5">
      <path
         style="color:#000000;fill:#000000;stroke-linecap:round;stroke-linejoin:round;-inkscape-stroke:none;paint-order:stroke markers fill"
         d="M 15.808594,0.16796875 A 1.20304,1.20304 0 0 0 15.136719,0.796875 1.20304,1.20304 0 0 0 15.734375,2.3886719 l 14.439453,6.5546875 a 1.20304,1.20304 0 0 0 1.591797,-0.5976563 1.20304,1.20304 0 0 0 -0.597656,-1.59375 L 16.728516,0.19921875 a 1.20304,1.20304 0 0 0 -0.919922,-0.03125 z"
         id="path1575" />
      <path
         style="color:#000000;fill:#2b0000;stroke-width:2.40608;stroke-linecap:round;stroke-linejoin:round;-inkscape-stroke:none;paint-order:stroke markers fill"
         d="M 16.231543,1.2939162 30.67074,7.8481789"
         id="path1577" />
    </g>
    <g
       id="path1244-3-5-6">
      <path
         style="color:#000000;fill:#000000;stroke-linecap:round;stroke-linejoin:round;-inkscape-stroke:none;paint-order:stroke markers fill"
         d="m 16.308594,0.19726562 a 1.2015049,1.2015049 0 0 0 -0.919922,0.0273438 L 0.828125,6.7695312 A 1.2015049,1.2015049 0 0 0 0.22460938,8.359375 1.2015049,1.2015049 0 0 0 1.8125,8.9609375 L 16.375,2.4160156 A 1.2015049,1.2015049 0 0 0 16.976562,0.828125 1.2015049,1.2015049 0 0 0 16.308594,0.19726562 Z"
         id="path1581" />
      <path
         style="color:#000000;fill:#2b0000;stroke-width:2.40301;stroke-linecap:round;stroke-linejoin:round;-inkscape-stroke:none;paint-order:stroke markers fill"
         d="M 15.881546,1.3199264 1.3206535,7.8659311"
         id="path1583" />
    </g>
  </g>
</svg>
