<?xml version="1.0" encoding="UTF-8" standalone="no"?>
<!-- Created with Inkscape (http://www.inkscape.org/) -->

<svg
   width="32.0px"
   height="32.0px"
   viewBox="0 0 32.0 32.0"
   version="1.1"
   id="SVGRoot"
   sodipodi:docname="greek_temple_solid.svg"
   inkscape:version="1.2.2 (b0a8486541, 2022-12-01)"
   xmlns:inkscape="http://www.inkscape.org/namespaces/inkscape"
   xmlns:sodipodi="http://sodipodi.sourceforge.net/DTD/sodipodi-0.dtd"
   xmlns="http://www.w3.org/2000/svg"
   xmlns:svg="http://www.w3.org/2000/svg">
  <sodipodi:namedview
     id="namedview11023"
     pagecolor="#505050"
     bordercolor="#eeeeee"
     borderopacity="1"
     inkscape:showpageshadow="0"
     inkscape:pageopacity="0"
     inkscape:pagecheckerboard="0"
     inkscape:deskcolor="#505050"
     inkscape:document-units="px"
     showgrid="true"
     inkscape:zoom="18.34254"
     inkscape:cx="10.276657"
     inkscape:cy="15.810242"
     inkscape:window-width="1920"
     inkscape:window-height="1163"
     inkscape:window-x="0"
     inkscape:window-y="0"
     inkscape:window-maximized="1"
     inkscape:current-layer="layer1">
    <inkscape:grid
       type="xygrid"
       id="grid11146" />
  </sodipodi:namedview>
  <defs
     id="defs11018" />
  <g
     inkscape:label="Layer 1"
     inkscape:groupmode="layer"
     id="layer1">
    <path
       style="color:#000000;fill:#000000;stroke-linecap:round;stroke-linejoin:round;-inkscape-stroke:none;paint-order:stroke markers fill"
       d="M 1.1992187,6.5996094 A 1.20005,1.20005 0 0 0 0,7.8007812 1.20005,1.20005 0 0 0 1.1992187,9 H 30.800781 A 1.20005,1.20005 0 0 0 32,7.8007812 1.20005,1.20005 0 0 0 30.800781,6.5996094 Z"
       id="path11155" />
    <path
       style="color:#000000;fill:#000000;stroke-linecap:round;stroke-linejoin:round;-inkscape-stroke:none;paint-order:stroke markers fill"
       d="M 3.1992188,11 A 1.199975,1.199975 0 0 0 2,12.199219 1.199975,1.199975 0 0 0 3.1992188,13.400391 H 28.800781 A 1.199975,1.199975 0 0 0 30,12.199219 1.199975,1.199975 0 0 0 28.800781,11 Z"
       id="path11155-0" />
    <path
       style="color:#000000;fill:#000000;stroke-linecap:round;stroke-linejoin:round;-inkscape-stroke:none;paint-order:stroke markers fill"
       d="M 1.1992187,29.599609 A 1.200035,1.200035 0 0 0 0,30.800781 1.200035,1.200035 0 0 0 1.1992187,32 H 30.800781 A 1.200035,1.200035 0 0 0 32,30.800781 1.200035,1.200035 0 0 0 30.800781,29.599609 Z"
       id="path11155-0-1" />
    <path
       style="color:#000000;fill:#000000;stroke-linecap:round;stroke-linejoin:round;-inkscape-stroke:none;paint-order:stroke markers fill"
       d="M 3.1992188,25 A 1.199775,1.199775 0 0 0 2,26.199219 1.199775,1.199775 0 0 0 3.1992188,27.400391 H 6.8007812 A 1.199775,1.199775 0 0 0 8,26.199219 1.199775,1.199775 0 0 0 6.8007812,25 Z"
       id="path11155-0-3" />
    <path
       style="color:#000000;fill:#000000;stroke-linecap:round;stroke-linejoin:round;-inkscape-stroke:none;paint-order:stroke markers fill"
       d="M 11.199219,25 A 1.20015,1.20015 0 0 0 10,26.199219 1.20015,1.20015 0 0 0 11.199219,27.400391 H 28.798828 A 1.20015,1.20015 0 0 0 30,26.199219 1.20015,1.20015 0 0 0 28.798828,25 Z"
       id="path11155-0-3-6" />
    <path
       style="color:#000000;fill:#000000;stroke-linecap:round;stroke-linejoin:round;-inkscape-stroke:none;paint-order:stroke markers fill"
       d="M 5.1992187,11 A 1.2,1.2 0 0 0 4,12.199219 v 13.74414 a 1.2,1.2 0 0 0 1.1992187,1.199219 1.2,1.2 0 0 0 1.2011719,-1.199219 V 12.199219 A 1.2,1.2 0 0 0 5.1992187,11 Z"
       id="path11155-0-9" />
    <path
       style="color:#000000;fill:#000000;stroke-linecap:round;stroke-linejoin:round;-inkscape-stroke:none;paint-order:stroke markers fill"
       d="m 10.599609,11 a 1.19977,1.19977 0 0 0 -1.1992184,1.199219 v 9.601562 A 1.19977,1.19977 0 0 0 10.599609,23 1.19977,1.19977 0 0 0 11.798828,21.800781 V 12.199219 A 1.19977,1.19977 0 0 0 10.599609,11 Z"
       id="path11155-0-9-0" />
    <path
       style="color:#000000;fill:#000000;stroke-linecap:round;stroke-linejoin:round;-inkscape-stroke:none;paint-order:stroke markers fill"
       d="m 16,11 a 1.19977,1.19977 0 0 0 -1.199219,1.199219 v 9.601562 A 1.19977,1.19977 0 0 0 16,23 1.19977,1.19977 0 0 0 17.199219,21.800781 V 12.199219 A 1.19977,1.19977 0 0 0 16,11 Z"
       id="path11155-0-9-0-6" />
    <path
       style="color:#000000;fill:#000000;stroke-linecap:round;stroke-linejoin:round;-inkscape-stroke:none;paint-order:stroke markers fill"
       d="m 21.400391,11 a 1.19977,1.19977 0 0 0 -1.201172,1.199219 v 9.601562 A 1.19977,1.19977 0 0 0 21.400391,23 1.19977,1.19977 0 0 0 22.599609,21.800781 V 12.199219 A 1.19977,1.19977 0 0 0 21.400391,11 Z"
       id="path11155-0-9-0-6-2" />
    <path
       style="color:#000000;fill:#000000;stroke-linecap:round;stroke-linejoin:round;-inkscape-stroke:none;paint-order:stroke markers fill"
       d="m 26.798828,11 a 1.19977,1.19977 0 0 0 -1.199219,1.199219 v 9.601562 A 1.19977,1.19977 0 0 0 26.798828,23 1.19977,1.19977 0 0 0 28,21.800781 V 12.199219 A 1.19977,1.19977 0 0 0 26.798828,11 Z"
       id="path11155-0-9-0-6-2-6" />
    <path
       style="color:#000000;fill:#000000;stroke-linecap:round;stroke-linejoin:round;-inkscape-stroke:none;paint-order:stroke markers fill"
       d="M 16.226562,0.07617187 A 1.19728,1.19728 0 0 0 15.310547,0.10546875 L 0.703125,6.7109375 A 1.19728,1.19728 0 0 0 0.10546875,8.296875 1.19728,1.19728 0 0 0 1.6914062,8.8945313 L 16.296875,2.2890625 A 1.19728,1.19728 0 0 0 16.894531,0.703125 1.19728,1.19728 0 0 0 16.226562,0.07617187 Z"
       id="path11155-1" />
    <path
       style="color:#000000;fill:#000000;stroke-linecap:round;stroke-linejoin:round;-inkscape-stroke:none;paint-order:stroke markers fill"
       d="M 16.689453,0.10546875 A 1.19728,1.19728 0 0 0 15.105469,0.703125 1.19728,1.19728 0 0 0 15.703125,2.2871094 L 30.310547,8.8925781 A 1.19728,1.19728 0 0 0 31.894531,8.2949219 1.19728,1.19728 0 0 0 31.296875,6.7109375 Z"
       id="path11155-1-7" />
  </g>
</svg>
